<?xml version="1.0" encoding="utf-8"?>
<!-- Generator: Adobe Illustrator 16.0.0, SVG Export Plug-In . SVG Version: 6.00 Build 0)  -->
<!DOCTYPE svg PUBLIC "-//W3C//DTD SVG 1.1//EN" "http://www.w3.org/Graphics/SVG/1.1/DTD/svg11.dtd">
<svg version="1.1" id="Layer_1" xmlns="http://www.w3.org/2000/svg" xmlns:xlink="http://www.w3.org/1999/xlink" x="0px" y="0px"
	 width="242.5px" height="33.091px" viewBox="0 0 242.5 33.091" enable-background="new 0 0 242.5 33.091" xml:space="preserve">
<polygon fill="#231F20" points="11.798,18.803 10.644,20.053 10.644,24.188 3.4,24.188 3.399,6.654 10.644,6.654 10.644,11.751 
	15.677,6.654 24.235,6.654 16.991,14.251 24.812,24.188 16.061,24.188 "/>
<g>
	<defs>
		<rect id="SVGID_1_" width="242.5" height="33.091"/>
	</defs>
	<clipPath id="SVGID_2_">
		<use xlink:href="#SVGID_1_"  overflow="visible"/>
	</clipPath>
	<path clip-path="url(#SVGID_2_)" fill="#231F20" d="M39.238,8.402c1.624,1.378,2.436,3.499,2.436,6.362v9.425h-6.732v-2.309
		c-0.833,1.752-2.489,2.628-4.968,2.628c-1.39,0-2.57-0.24-3.542-0.721c-0.973-0.481-1.71-1.133-2.212-1.955
		c-0.503-0.823-0.754-1.747-0.754-2.773c0-1.73,0.663-3.044,1.988-3.942c1.325-0.898,3.334-1.347,6.027-1.347h2.916
		c-0.235-1.367-1.335-2.051-3.301-2.051c-0.791,0-1.593,0.123-2.404,0.369c-0.813,0.246-1.507,0.582-2.084,1.01L24.3,8.321
		c1.004-0.62,2.217-1.106,3.638-1.458c1.421-0.353,2.837-0.529,4.248-0.529C35.263,6.334,37.614,7.023,39.238,8.402 M33.532,19.733
		c0.406-0.278,0.705-0.694,0.898-1.25v-1.22h-1.795c-1.475,0-2.212,0.493-2.212,1.476c0,0.407,0.155,0.743,0.465,1.01
		c0.309,0.267,0.731,0.401,1.266,0.401C32.667,20.15,33.126,20.011,33.532,19.733"/>
	<path clip-path="url(#SVGID_2_)" fill="#231F20" d="M71.501,8.289c1.271,1.304,1.908,3.27,1.908,5.898v10.001h-7.245v-8.751
		c0-2.008-0.652-3.013-1.956-3.013c-0.684,0-1.234,0.256-1.65,0.769c-0.417,0.513-0.625,1.325-0.625,2.436v8.559h-7.245v-8.751
		c0-2.008-0.652-3.013-1.955-3.013c-0.684,0-1.234,0.256-1.651,0.769c-0.417,0.513-0.625,1.325-0.625,2.436v8.559h-7.245V6.654
		h6.892v1.635c1.303-1.304,2.96-1.955,4.969-1.955c1.175,0,2.232,0.219,3.173,0.657c0.94,0.438,1.71,1.105,2.308,2.003
		c0.705-0.854,1.56-1.511,2.565-1.972c1.004-0.459,2.104-0.688,3.301-0.688C68.536,6.334,70.229,6.985,71.501,8.289"/>
	<path clip-path="url(#SVGID_2_)" fill="#231F20" d="M90.895,7.44c1.293,0.737,2.318,1.8,3.077,3.189
		c0.759,1.39,1.138,2.992,1.138,4.808c0,1.817-0.379,3.415-1.138,4.792s-1.784,2.437-3.077,3.173
		c-1.293,0.737-2.709,1.106-4.248,1.106c-1.944,0-3.429-0.502-4.455-1.506v7.404h-7.245V6.655h6.892v1.442
		c1.047-1.175,2.65-1.763,4.808-1.763C88.186,6.334,89.602,6.702,90.895,7.44 M86.968,17.97c0.534-0.598,0.802-1.443,0.802-2.533
		c0-1.089-0.268-1.939-0.802-2.548c-0.534-0.609-1.218-0.913-2.051-0.913c-0.834,0-1.518,0.304-2.052,0.913
		c-0.534,0.609-0.801,1.459-0.801,2.548c0,1.09,0.267,1.935,0.801,2.533c0.534,0.599,1.218,0.898,2.052,0.898
		C85.75,18.868,86.434,18.568,86.968,17.97"/>
	<path clip-path="url(#SVGID_2_)" fill="#231F20" d="M99.871,23.355c-1.571-0.77-2.8-1.849-3.687-3.238
		c-0.887-1.389-1.33-2.959-1.33-4.712c0-1.752,0.443-3.318,1.33-4.696c0.887-1.379,2.116-2.452,3.687-3.222
		c1.57-0.769,3.349-1.153,5.337-1.153c2.137,0,3.964,0.459,5.481,1.378s2.565,2.19,3.142,3.814l-5.61,2.757
		c-0.684-1.539-1.699-2.308-3.045-2.308c-0.855,0-1.566,0.3-2.132,0.898c-0.566,0.598-0.849,1.442-0.849,2.532
		c0,1.112,0.283,1.966,0.849,2.564s1.277,0.897,2.132,0.897c1.346,0,2.361-0.769,3.045-2.308l5.61,2.757
		c-0.577,1.624-1.625,2.896-3.142,3.815s-3.344,1.378-5.481,1.378C103.219,24.51,101.44,24.124,99.871,23.355 M101.264,31.689
		c-0.598-0.128-1.069-0.288-1.41-0.481l0.897-2.659c0.641,0.256,1.282,0.385,1.923,0.385c1.026,0,1.539-0.257,1.539-0.771
		c0-0.428-0.438-0.641-1.314-0.641h-1.314l0.865-3.654h3.718l-0.448,1.987c0.94,0.129,1.629,0.433,2.067,0.913
		c0.438,0.481,0.658,1.031,0.658,1.65c0,1.069-0.497,1.913-1.491,2.533c-0.994,0.619-2.314,0.931-3.959,0.931
		C102.439,31.883,101.862,31.817,101.264,31.689"/>
	<rect x="113.894" y="6.655" clip-path="url(#SVGID_2_)" fill="#231F20" width="7.244" height="17.534"/>
	<path clip-path="url(#SVGID_2_)" fill="#FF9E16" d="M139.698,1.114v23.074h-2.18v-3.333c-0.685,1.133-1.586,1.998-2.708,2.596
		c-1.122,0.599-2.389,0.898-3.8,0.898c-1.581,0-3.013-0.364-4.295-1.091c-1.282-0.726-2.286-1.741-3.013-3.046
		c-0.727-1.303-1.09-2.788-1.09-4.455c0-1.667,0.363-3.152,1.09-4.456c0.727-1.303,1.73-2.313,3.013-3.029
		c1.282-0.716,2.714-1.074,4.295-1.074c1.368,0,2.603,0.284,3.703,0.85s2.003,1.394,2.708,2.484V1.114H139.698z M134.394,21.513
		c0.95-0.546,1.698-1.32,2.243-2.324c0.546-1.005,0.817-2.148,0.817-3.43c0-1.282-0.271-2.425-0.817-3.43
		c-0.545-1.004-1.293-1.779-2.243-2.324c-0.951-0.545-2.015-0.818-3.189-0.818c-1.198,0-2.271,0.273-3.222,0.818
		c-0.951,0.545-1.699,1.32-2.244,2.324c-0.545,1.005-0.817,2.148-0.817,3.43c0,1.282,0.272,2.425,0.817,3.43
		c0.545,1.004,1.293,1.778,2.244,2.324c0.951,0.545,2.023,0.816,3.222,0.816C132.379,22.329,133.442,22.058,134.394,21.513"/>
	<path clip-path="url(#SVGID_2_)" fill="#FF9E16" d="M159.637,7.327v16.861h-2.18v-3.077c-0.599,1.025-1.421,1.821-2.469,2.388
		c-1.048,0.567-2.243,0.85-3.59,0.85c-2.202,0-3.938-0.613-5.209-1.843c-1.271-1.229-1.908-3.03-1.908-5.402V7.327h2.276v9.553
		c0,1.774,0.438,3.12,1.315,4.039c0.875,0.919,2.126,1.378,3.75,1.378c1.773,0,3.173-0.539,4.198-1.618
		c1.026-1.079,1.539-2.581,1.539-4.504V7.327H159.637z M148.145,3.577c-0.267-0.257-0.4-0.588-0.4-0.994
		c0-0.385,0.134-0.71,0.4-0.977c0.268-0.267,0.593-0.401,0.979-0.401c0.362,0,0.683,0.134,0.961,0.401
		c0.277,0.267,0.417,0.592,0.417,0.977c0,0.385-0.135,0.711-0.401,0.978s-0.593,0.401-0.977,0.401
		C148.737,3.962,148.412,3.833,148.145,3.577 M153.851,3.561c-0.268-0.267-0.401-0.593-0.401-0.978c0-0.385,0.14-0.71,0.417-0.977
		s0.599-0.401,0.963-0.401c0.384,0,0.71,0.134,0.977,0.401s0.401,0.592,0.401,0.977c0,0.406-0.135,0.737-0.401,0.994
		c-0.267,0.256-0.593,0.385-0.977,0.385C154.443,3.962,154.118,3.828,153.851,3.561"/>
	<polygon clip-path="url(#SVGID_2_)" fill="#FF9E16" points="170.663,15.726 166.688,19.38 166.688,24.188 164.412,24.188 
		164.412,6.654 166.688,6.654 166.688,16.527 176.754,7.327 179.574,7.327 172.362,14.219 180.248,24.188 177.459,24.188 	"/>
	<polygon clip-path="url(#SVGID_2_)" fill="#FF9E16" points="188.326,15.726 184.351,19.38 184.351,24.188 182.074,24.188 
		182.074,6.654 184.351,6.654 184.351,16.527 194.417,7.327 197.236,7.327 190.024,14.219 197.911,24.188 195.122,24.188 	"/>
	<path clip-path="url(#SVGID_2_)" fill="#FF9E16" d="M210.38,8.85c1.175,1.101,1.764,2.73,1.764,4.888v10.45h-2.18v-2.628
		c-0.513,0.877-1.267,1.56-2.26,2.051c-0.994,0.492-2.176,0.738-3.542,0.738c-1.882,0-3.377-0.449-4.488-1.348
		c-1.111-0.896-1.667-2.083-1.667-3.558c0-1.431,0.518-2.585,1.555-3.462c1.036-0.876,2.688-1.314,4.952-1.314h5.354v-1.026
		c0-1.453-0.406-2.559-1.218-3.318c-0.813-0.758-1.999-1.138-3.559-1.138c-1.069,0-2.094,0.177-3.077,0.53
		c-0.983,0.352-1.827,0.838-2.532,1.458l-1.025-1.699c0.854-0.726,1.88-1.287,3.076-1.683c1.197-0.395,2.457-0.593,3.783-0.593
		C207.516,7.199,209.205,7.749,210.38,8.85 M207.815,21.672c0.919-0.587,1.604-1.437,2.052-2.549v-2.756h-5.289
		c-2.886,0-4.327,1.005-4.327,3.013c0,0.983,0.374,1.759,1.122,2.324c0.748,0.567,1.795,0.851,3.141,0.851
		C205.797,22.555,206.896,22.26,207.815,21.672"/>
	<path clip-path="url(#SVGID_2_)" fill="#FF9E16" d="M230.366,9.042c1.25,1.229,1.875,3.018,1.875,5.369v9.777h-2.275v-9.553
		c0-1.752-0.438-3.087-1.314-4.006c-0.877-0.919-2.127-1.379-3.75-1.379c-1.816,0-3.254,0.54-4.312,1.619
		c-1.059,1.079-1.587,2.57-1.587,4.472v8.847h-2.276V7.328h2.18v3.109c0.62-1.026,1.48-1.821,2.581-2.388
		c1.101-0.566,2.377-0.849,3.83-0.849C227.434,7.2,229.116,7.813,230.366,9.042"/>
	<rect x="236.825" y="7.327" clip-path="url(#SVGID_2_)" fill="#FF9E16" width="2.275" height="16.861"/>
	<path clip-path="url(#SVGID_2_)" d="M123.482,31.779c-0.375-0.131-0.665-0.304-0.87-0.519l0.229-0.449
		c0.2,0.199,0.465,0.36,0.796,0.483c0.331,0.124,0.672,0.186,1.024,0.186c0.493,0,0.863-0.091,1.11-0.271
		c0.247-0.182,0.37-0.416,0.37-0.705c0-0.221-0.067-0.397-0.201-0.527c-0.134-0.132-0.298-0.232-0.492-0.304
		s-0.465-0.148-0.812-0.232c-0.415-0.104-0.745-0.206-0.992-0.304c-0.247-0.097-0.458-0.245-0.634-0.444s-0.265-0.471-0.265-0.812
		c0-0.279,0.074-0.531,0.221-0.76s0.373-0.411,0.678-0.549c0.304-0.136,0.684-0.203,1.134-0.203c0.316,0,0.623,0.043,0.927,0.13
		c0.301,0.086,0.563,0.206,0.782,0.357l-0.196,0.465c-0.231-0.152-0.478-0.267-0.74-0.343s-0.521-0.114-0.772-0.114
		c-0.482,0-0.846,0.094-1.091,0.28c-0.244,0.187-0.366,0.426-0.366,0.721c0,0.221,0.067,0.397,0.201,0.531
		c0.133,0.134,0.302,0.236,0.504,0.308c0.202,0.07,0.475,0.147,0.815,0.232c0.404,0.1,0.73,0.198,0.98,0.295
		c0.25,0.098,0.461,0.244,0.635,0.441c0.173,0.197,0.26,0.464,0.26,0.8c0,0.278-0.075,0.531-0.224,0.76
		c-0.15,0.229-0.381,0.409-0.69,0.544c-0.31,0.134-0.69,0.2-1.142,0.2C124.252,31.977,123.858,31.912,123.482,31.779"/>
	<polygon clip-path="url(#SVGID_2_)" points="135.43,31.426 135.43,31.93 131.529,31.93 131.529,26.416 135.311,26.416 
		135.311,26.92 132.112,26.92 132.112,28.881 134.964,28.881 134.964,29.378 132.112,29.378 132.112,31.426 	"/>
	<polygon clip-path="url(#SVGID_2_)" points="144.952,26.416 144.952,31.93 144.473,31.93 140.928,27.456 140.928,31.93 
		140.345,31.93 140.345,26.416 140.825,26.416 144.378,30.89 144.378,26.416 	"/>
	<path clip-path="url(#SVGID_2_)" d="M150.167,26.762c-0.079-0.078-0.118-0.173-0.118-0.283c0-0.104,0.039-0.196,0.118-0.275
		s0.176-0.118,0.292-0.118s0.212,0.038,0.291,0.114s0.118,0.167,0.118,0.271c0,0.116-0.039,0.213-0.118,0.291
		c-0.079,0.079-0.175,0.119-0.291,0.119S150.246,26.841,150.167,26.762 M150.175,27.786h0.56v4.144h-0.56V27.786z"/>
	<polygon clip-path="url(#SVGID_2_)" points="160.565,26.416 160.565,31.93 160.085,31.93 156.54,27.456 156.54,31.93 
		155.957,31.93 155.957,26.416 156.438,26.416 159.99,30.89 159.99,26.416 	"/>
	<path clip-path="url(#SVGID_2_)" d="M171.515,26.416h2.245c0.584,0,1.098,0.117,1.544,0.35c0.445,0.234,0.793,0.561,1.04,0.978
		c0.247,0.418,0.369,0.894,0.369,1.43c0,0.535-0.122,1.012-0.369,1.429c-0.247,0.418-0.595,0.744-1.04,0.978
		c-0.446,0.233-0.96,0.351-1.544,0.351h-2.245V26.416z M173.729,31.426c0.482,0,0.906-0.096,1.268-0.288
		c0.363-0.19,0.644-0.456,0.844-0.795c0.199-0.339,0.299-0.729,0.299-1.17s-0.1-0.832-0.299-1.17c-0.2-0.339-0.48-0.604-0.844-0.796
		c-0.361-0.191-0.785-0.287-1.268-0.287h-1.631v4.506H173.729z"/>
	<path clip-path="url(#SVGID_2_)" d="M182.118,31.362c-0.399-0.41-0.6-1.005-0.6-1.788v-3.158h0.583v3.135
		c0,0.642,0.145,1.118,0.434,1.434c0.289,0.314,0.706,0.473,1.253,0.473c0.551,0,0.971-0.158,1.26-0.473
		c0.289-0.315,0.433-0.792,0.433-1.434v-3.135h0.568v3.158c0,0.783-0.199,1.378-0.595,1.788c-0.397,0.41-0.952,0.615-1.666,0.615
		C183.073,31.978,182.517,31.772,182.118,31.362 M182.847,25.69c-0.066-0.063-0.099-0.144-0.099-0.244
		c0-0.094,0.032-0.174,0.099-0.24c0.065-0.066,0.146-0.098,0.24-0.098c0.089,0,0.167,0.031,0.236,0.098
		c0.067,0.066,0.102,0.146,0.102,0.24c0,0.095-0.033,0.176-0.098,0.241c-0.066,0.064-0.146,0.098-0.24,0.098
		C182.992,25.785,182.912,25.754,182.847,25.69 M184.249,25.688c-0.066-0.065-0.098-0.146-0.098-0.241
		c0-0.094,0.033-0.174,0.101-0.24c0.068-0.066,0.147-0.098,0.237-0.098c0.095,0,0.174,0.031,0.239,0.098
		c0.066,0.066,0.1,0.146,0.1,0.24c0,0.101-0.033,0.182-0.1,0.244c-0.065,0.063-0.145,0.095-0.239,0.095
		S184.313,25.752,184.249,25.688"/>
	<polygon clip-path="url(#SVGID_2_)" points="193.059,29.338 191.933,30.48 191.933,31.93 191.35,31.93 191.35,26.415 
		191.933,26.415 191.933,29.748 195.169,26.415 195.84,26.415 193.452,28.913 196.004,31.93 195.312,31.93 	"/>
	<polygon clip-path="url(#SVGID_2_)" points="202.204,29.338 201.078,30.48 201.078,31.93 200.495,31.93 200.495,26.415 
		201.078,26.415 201.078,29.748 204.315,26.415 204.985,26.415 202.599,28.913 205.15,31.93 204.457,31.93 	"/>
	<path clip-path="url(#SVGID_2_)" d="M212.887,30.456h-3.073l-0.661,1.474h-0.607l2.521-5.514h0.575l2.521,5.514h-0.614
		L212.887,30.456z M212.674,29.984l-1.324-2.962l-1.323,2.962H212.674z"/>
	<polygon clip-path="url(#SVGID_2_)" points="223.229,26.416 223.229,31.93 222.749,31.93 219.204,27.456 219.204,31.93 
		218.621,31.93 218.621,26.416 219.102,26.416 222.653,30.89 222.653,26.416 	"/>
	<rect x="228.569" y="26.416" clip-path="url(#SVGID_2_)" width="0.583" height="5.514"/>
	<polygon clip-path="url(#SVGID_2_)" points="239.102,26.416 239.102,31.93 238.621,31.93 235.076,27.456 235.076,31.93 
		234.493,31.93 234.493,26.416 234.974,26.416 238.526,30.89 238.526,26.416 	"/>
</g>
</svg>
